<?xml version="1.0" standalone="no"?>
<!DOCTYPE svg PUBLIC "-//W3C//DTD SVG 20010904//EN"
 "http://www.w3.org/TR/2001/REC-SVG-20010904/DTD/svg10.dtd">
<svg version="1.0" xmlns="http://www.w3.org/2000/svg"
 width="300.000000pt" height="300.000000pt" viewBox="0 0 300.000000 300.000000"
 preserveAspectRatio="xMidYMid meet">
<metadata>
Created by potrace 1.14, written by Peter Selinger 2001-2017
</metadata>
<g transform="translate(0.000000,300.000000) scale(0.100000,-0.100000)"
fill="#000000" stroke="none">
<path d="M1061 2828 c-5 -18 -20 -71 -32 -118 -12 -47 -27 -90 -33 -96 -6 -6
-65 -25 -131 -42 -66 -17 -175 -46 -242 -63 l-122 -32 -30 -111 c-17 -61 -31
-117 -31 -123 0 -17 1 -18 -136 18 l-121 31 -91 -92 -92 -91 90 -90 c49 -49
94 -89 101 -89 7 0 62 14 122 31 60 17 113 27 117 22 4 -4 22 -60 39 -123 l30
-115 -92 -92 -92 -93 94 -94 93 -93 -21 -74 c-12 -41 -27 -94 -35 -119 -7 -25
-28 -104 -46 -176 l-34 -131 87 -86 c48 -48 87 -90 87 -95 0 -4 -40 -47 -88
-95 l-89 -88 23 -87 c41 -154 45 -164 68 -158 12 3 67 18 123 33 l103 27 16
56 c9 30 17 60 18 65 16 77 31 125 38 125 13 0 241 -60 246 -64 2 -3 17 -58
34 -123 16 -65 31 -119 33 -121 2 -2 60 11 128 28 l125 32 89 -91 89 -91 91
90 c51 49 95 90 100 90 4 0 59 -14 121 -30 62 -17 117 -28 122 -25 5 3 14 31
20 62 7 31 16 66 21 77 4 12 13 40 19 62 l10 42 83 21 c45 11 143 37 217 57
74 20 140 37 145 38 50 11 59 21 71 78 17 86 52 183 65 181 20 -2 45 -8 114
-28 132 -37 109 -43 213 59 l92 91 -91 91 -91 92 67 251 67 252 -91 92 -92 91
92 92 91 92 -15 58 c-37 138 -48 178 -53 183 -3 3 -35 -3 -72 -13 -37 -9 -74
-19 -82 -21 -8 -1 -33 -8 -55 -14 l-40 -11 -33 -122 c-18 -67 -34 -123 -35
-125 -5 -4 -231 59 -242 68 -6 5 -17 32 -24 61 -7 29 -22 83 -32 120 l-19 66
-88 -24 c-48 -13 -100 -27 -116 -30 -16 -2 -32 -7 -36 -9 -4 -3 -90 78 -191
180 l-184 184 -120 -33 c-66 -19 -123 -31 -127 -27 -3 3 -20 57 -37 120 -16
62 -33 117 -38 121 -4 4 -53 19 -108 34 -55 15 -107 29 -117 32 -12 3 -19 -4
-27 -28z"/>
</g>
</svg>
